# xmcd CD database file
#
# Track frame offsets:
#	187
#	21187
#	37562
#
# Disc length: 851 seconds
#
# Revision: 0
# Processed by: cddbd v1.5.1PL0 Copyright (c) Steve Scherf et al.
# Submitted via: CDex 1.50Beta7
#
DISCID=13035103
DTITLE=ARB - Sweat, Heart and Brain
DYEAR=1988
DGENRE=Rock
TTITLE0=Sweat, Heart and Brain
TTITLE1=Do It! Boy (New Version)
TTITLE2=Bad News (New Version)
EXTD=YEAR: 1988
EXTT0=
EXTT1=
EXTT2=
PLAYORDER=
